# xmcd
#
# Track frame offsets: 
#        150
#        17376
#        39507
#        58033
#        76328
#        97478
#        116592
#        136724
#        156791
#        178143
#        199167
#
# Disc length: 2953 seconds
#
# Revision: 2
# Processed by: cddbd v1.5.2PL0 Copyright (c) Steve Scherf et al.
# Submitted via: ExactAudioCopyFreeDBPlugin 1.0
#
DISCID=8e0b870b
DTITLE=Anthony David - Acey Duecy
DYEAR=2008
DGENRE=R&B
TTITLE0=Stop Playin'
TTITLE1=Something About You
TTITLE2=Smoke One
TTITLE3=Words (feat. India.Arie)
TTITLE4=Lady
TTITLE5=Spittin' Game
TTITLE6=Kinfolk
TTITLE7=GA Peach
TTITLE8=Cheatin' Man
TTITLE9=Cold Turkey
TTITLE10=Krooked Kop
EXTD=
EXTT0=
EXTT1=
EXTT2=
EXTT3=
EXTT4=
EXTT5=
EXTT6=
EXTT7=
EXTT8=
EXTT9=
EXTT10=
PLAYORDER=
